# Blender v2.90.0 OBJ File: ''
# www.blender.org
o Cube
v 0.395097 -0.395097 3.711660
v 0.395097 0.395097 3.711660
v 1.000000 1.000000 1.000000
v 1.000000 -1.000000 1.000000
v -0.395097 0.395097 3.711660
v -0.395097 -0.395097 3.711660
v -1.000000 1.000000 1.000000
v -1.000000 -1.000000 1.000000
v 3.173202 0.268997 0.634498
v 3.173202 -0.268997 0.634498
v 3.173202 0.268997 0.365502
v 3.173202 -0.268997 0.365502
v -4.010792 -0.437322 0.281339
v -4.010792 -0.437322 0.718661
v -4.010792 0.437322 0.718661
v -4.010792 0.437322 0.281339
v 0.395097 0.395097 3.711660
v 0.395097 0.395097 3.711660
v 1.000000 1.000000 1.000000
v 1.000000 1.000000 1.000000
v -1.000000 1.000000 1.000000
v -1.000000 1.000000 1.000000
v -0.395097 0.395097 3.711660
v -0.395097 0.395097 3.711660
v -1.000000 -1.000000 1.000000
v -1.000000 -1.000000 1.000000
v 1.000000 -1.000000 1.000000
v 1.000000 -1.000000 1.000000
v -0.395097 -0.395097 3.711660
v -0.395097 -0.395097 3.711660
v 0.395097 -0.395097 3.711660
v 0.395097 -0.395097 3.711660
v 3.173202 0.268997 0.634498
v 3.173202 0.268997 0.634498
v 3.173202 -0.268997 0.634498
v 3.173202 -0.268997 0.634498
v 3.173202 0.268997 0.365502
v 3.173202 0.268997 0.365502
v 3.173202 -0.268997 0.365502
v 3.173202 -0.268997 0.365502
v -4.010792 -0.437322 0.281339
v -4.010792 -0.437322 0.281339
v -4.010792 -0.437322 0.718661
v -4.010792 -0.437322 0.718661
v -4.010792 0.437322 0.718661
v -4.010792 0.437322 0.718661
v -4.010792 0.437322 0.281339
v -4.010792 0.437322 0.281339
v 0.395097 -0.395097 -3.711660
v 0.395097 0.395097 -3.711660
v 1.000000 1.000000 -1.000000
v 1.000000 -1.000000 -1.000000
v -0.395097 0.395097 -3.711660
v -0.395097 -0.395097 -3.711660
v -1.000000 1.000000 -1.000000
v -1.000000 -1.000000 -1.000000
v -1.000000 -1.000000 0.000000
v 1.000000 1.000000 0.000000
v -1.000000 1.000000 0.000000
v 1.000000 -1.000000 0.000000
v 3.173202 0.268997 -0.634498
v 3.173202 -0.268997 -0.634498
v 3.173202 0.268997 -0.365502
v 3.173202 -0.268997 -0.365502
v -4.010792 -0.437322 -0.281339
v -4.010792 -0.437322 -0.718661
v -4.010792 0.437322 -0.718661
v -4.010792 0.437322 -0.281339
v 0.395097 0.395097 -3.711660
v 0.395097 0.395097 -3.711660
v 1.000000 1.000000 -1.000000
v 1.000000 1.000000 -1.000000
v -1.000000 1.000000 -1.000000
v -1.000000 1.000000 -1.000000
v -0.395097 0.395097 -3.711660
v -0.395097 0.395097 -3.711660
v -1.000000 -1.000000 -1.000000
v -1.000000 -1.000000 -1.000000
v 1.000000 -1.000000 -1.000000
v 1.000000 -1.000000 -1.000000
v -0.395097 -0.395097 -3.711660
v -0.395097 -0.395097 -3.711660
v 0.395097 -0.395097 -3.711660
v 0.395097 -0.395097 -3.711660
v 3.173202 0.268997 -0.634498
v 3.173202 0.268997 -0.634498
v 3.173202 -0.268997 -0.634498
v 3.173202 -0.268997 -0.634498
v 3.173202 0.268997 -0.365502
v 3.173202 0.268997 -0.365502
v 3.173202 -0.268997 -0.365502
v 3.173202 -0.268997 -0.365502
v 1.000000 -1.000000 0.000000
v 1.000000 1.000000 0.000000
v -4.010792 -0.437322 -0.281339
v -4.010792 -0.437322 -0.281339
v -4.010792 -0.437322 -0.718661
v -4.010792 -0.437322 -0.718661
v -4.010792 0.437322 -0.718661
v -4.010792 0.437322 -0.718661
v -4.010792 0.437322 -0.281339
v -4.010792 0.437322 -0.281339
v -1.000000 -1.000000 0.000000
v -1.000000 1.000000 0.000000
vn -0.0894 0.9960 0.0000
vn 0.1055 0.9920 0.0692
vn 0.1530 0.9882 0.0000
vn 0.1055 -0.9920 0.0692
vn 0.0000 -0.9760 0.2177
vn -0.0622 -0.9958 0.0676
vn 1.0000 0.0000 0.0000
vn 0.1530 -0.9882 0.0000
vn -0.0894 -0.9960 0.0000
vn 0.1658 0.0000 0.9861
vn -0.9760 0.0000 0.2177
vn 0.9760 0.0000 0.2177
vn -0.0622 0.9958 0.0676
vn 0.0000 0.9760 0.2177
vn -0.1837 -0.9830 0.0000
vn 0.0000 0.0000 1.0000
vn 0.3188 -0.9478 0.0000
vn 0.3188 0.9478 0.0000
vn 0.1658 0.0000 -0.9861
vn -1.0000 0.0000 0.0000
vn -0.0930 0.0000 -0.9956
vn -0.0930 0.0000 0.9956
vn -0.1837 0.9830 0.0000
vn 0.1055 0.9920 -0.0692
vn 0.0000 -0.9760 -0.2177
vn 0.1055 -0.9920 -0.0692
vn -0.0622 -0.9958 -0.0676
vn -0.9760 0.0000 -0.2177
vn 0.9760 0.0000 -0.2177
vn 0.0000 0.9760 -0.2177
vn -0.0622 0.9958 -0.0676
vn 0.0000 0.0000 -1.0000
s 1
f 104//1 3//2 94//3
f 28//4 29//5 25//6
f 37//7 35//7 39//7
f 93//8 25//6 103//9
f 27//10 34//10 20//10
f 26//11 23//11 21//11
f 19//12 32//12 4//12
f 22//13 18//14 3//2
f 25//6 41//15 103//9
f 2//16 6//16 1//16
f 93//8 10//17 28//4
f 3//2 38//18 94//3
f 58//7 12//19 60//7
f 45//20 42//20 44//20
f 59//20 13//21 48//21
f 7//22 14//22 8//22
f 104//1 15//23 22//13
f 51//24 104//1 94//3
f 81//25 80//26 77//27
f 87//7 89//7 91//7
f 77//27 93//8 103//9
f 86//19 79//19 72//19
f 75//28 78//28 73//28
f 84//29 71//29 52//29
f 70//30 74//31 51//24
f 95//15 77//27 103//9
f 54//32 50//32 49//32
f 62//17 93//8 80//26
f 90//18 51//24 94//3
f 64//10 58//7 60//7
f 96//20 99//20 98//20
f 102//22 57//20 59//20
f 66//21 55//21 56//21
f 67//23 104//1 74//31
f 104//1 22//13 3//2
f 28//4 31//5 29//5
f 37//7 33//7 35//7
f 93//8 28//4 25//6
f 27//10 36//10 34//10
f 26//11 30//11 23//11
f 19//12 17//12 32//12
f 22//13 24//14 18//14
f 25//6 43//15 41//15
f 2//16 5//16 6//16
f 93//8 40//17 10//17
f 3//2 9//18 38//18
f 58//7 11//19 12//19
f 45//20 47//20 42//20
f 59//20 57//20 13//21
f 7//22 46//22 14//22
f 104//1 16//23 15//23
f 51//24 74//31 104//1
f 81//25 83//25 80//26
f 87//7 85//7 89//7
f 77//27 80//26 93//8
f 86//19 88//19 79//19
f 75//28 82//28 78//28
f 84//29 69//29 71//29
f 70//30 76//30 74//31
f 95//15 97//15 77//27
f 54//32 53//32 50//32
f 62//17 92//17 93//8
f 90//18 61//18 51//24
f 64//10 63//10 58//7
f 96//20 101//20 99//20
f 102//22 65//22 57//20
f 66//21 100//21 55//21
f 67//23 68//23 104//1
